<?xml version="1.0" encoding="UTF-8"?>
<!DOCTYPE svg PUBLIC "-//W3C//DTD SVG 1.1//EN" "http://www.w3.org/Graphics/SVG/1.1/DTD/svg11.dtd">
<svg xmlns="http://www.w3.org/2000/svg" version="1.1" width="128px" height="128px" style="shape-rendering:geometricPrecision; text-rendering:geometricPrecision; image-rendering:optimizeQuality; fill-rule:evenodd; clip-rule:evenodd" xmlns:xlink="http://www.w3.org/1999/xlink">
<g><path style="opacity:0.857" fill="#000000" d="M 51.5,-0.5 C 59.5,-0.5 67.5,-0.5 75.5,-0.5C 103.167,6.5 120.5,23.8333 127.5,51.5C 127.5,59.5 127.5,67.5 127.5,75.5C 120.5,103.167 103.167,120.5 75.5,127.5C 67.5,127.5 59.5,127.5 51.5,127.5C 23.8333,120.5 6.5,103.167 -0.5,75.5C -0.5,67.5 -0.5,59.5 -0.5,51.5C 6.5,23.8333 23.8333,6.5 51.5,-0.5 Z M 50.5,6.5 C 51.552,6.35055 52.552,6.51722 53.5,7C 48.8824,12.3991 44.8824,18.2324 41.5,24.5C 34.5237,25.6644 27.5237,25.8311 20.5,25C 28.833,16.0064 38.833,9.83969 50.5,6.5 Z M 73.5,7.5 C 86.4701,8.99174 97.4701,14.8251 106.5,25C 99.4763,25.8311 92.4763,25.6644 85.5,24.5C 82.2199,18.237 78.2199,12.5704 73.5,7.5 Z M 61.5,7.5 C 64.7845,7.26928 67.2845,8.60261 69,11.5C 72.2897,15.9124 75.4563,20.4124 78.5,25C 68.5,25.6667 58.5,25.6667 48.5,25C 52.2798,18.7252 56.6131,12.8919 61.5,7.5 Z M 35.5,41.5 C 19.2773,40.058 11.6107,47.3913 12.5,63.5C 11.6107,79.6087 19.2773,86.942 35.5,85.5C 36.1148,88.7941 37.1148,91.9608 38.5,95C 30.4792,95.8316 22.4792,95.6649 14.5,94.5C 2.5,73.8333 2.5,53.1667 14.5,32.5C 22.5,31.1667 30.5,31.1667 38.5,32.5C 37.0366,35.357 36.0366,38.357 35.5,41.5 Z M 84.5,41.5 C 70.5,41.5 56.5,41.5 42.5,41.5C 43.2946,38.4496 44.2946,35.4496 45.5,32.5C 57.5,31.1667 69.5,31.1667 81.5,32.5C 82.7054,35.4496 83.7054,38.4496 84.5,41.5 Z M 91.5,85.5 C 107.703,86.9618 115.37,79.6284 114.5,63.5C 115.37,47.3716 107.703,40.0382 91.5,41.5C 90.9634,38.357 89.9634,35.357 88.5,32.5C 96.5,31.1667 104.5,31.1667 112.5,32.5C 124.5,53.1667 124.5,73.8333 112.5,94.5C 104.521,95.6649 96.5208,95.8316 88.5,95C 89.8852,91.9608 90.8852,88.7941 91.5,85.5 Z M 25.5,48.5 C 51.1688,48.3334 76.8355,48.5 102.5,49C 105.381,50.2506 107.214,52.4173 108,55.5C 108.667,60.8333 108.667,66.1667 108,71.5C 107.214,74.5827 105.381,76.7494 102.5,78C 76.8333,78.6667 51.1667,78.6667 25.5,78C 20.0149,74.8138 18.0149,69.9805 19.5,63.5C 18.024,56.8761 20.024,51.8761 25.5,48.5 Z M 42.5,85.5 C 56.5,85.5 70.5,85.5 84.5,85.5C 83.9634,88.643 82.9634,91.643 81.5,94.5C 69.5,95.8333 57.5,95.8333 45.5,94.5C 44.0366,91.643 43.0366,88.643 42.5,85.5 Z M 20.5,102.5 C 27.344,101.181 34.344,101.181 41.5,102.5C 44.3884,109.115 48.3884,114.948 53.5,120C 40.5716,117.868 29.5716,112.035 20.5,102.5 Z M 48.5,102.5 C 58.3247,101.342 68.3247,101.175 78.5,102C 75.4563,106.588 72.2897,111.088 69,115.5C 65.3333,120.833 61.6667,120.833 58,115.5C 54.8121,111.099 51.6454,106.766 48.5,102.5 Z M 85.5,101.5 C 92.5079,101.334 99.5079,101.5 106.5,102C 97.5817,111.957 86.5817,117.957 73.5,120C 78.891,114.714 82.891,108.547 85.5,101.5 Z"/></g>
<g><path style="opacity:0.829" fill="#33cbcb" d="M 35.5,41.5 C 37.7257,42.7563 40.059,42.7563 42.5,41.5C 56.5,41.5 70.5,41.5 84.5,41.5C 86.941,42.7563 89.2743,42.7563 91.5,41.5C 107.703,40.0382 115.37,47.3716 114.5,63.5C 115.37,79.6284 107.703,86.9618 91.5,85.5C 89.2743,84.2437 86.941,84.2437 84.5,85.5C 70.5,85.5 56.5,85.5 42.5,85.5C 40.059,84.2437 37.7257,84.2437 35.5,85.5C 19.2773,86.942 11.6107,79.6087 12.5,63.5C 11.6107,47.3913 19.2773,40.058 35.5,41.5 Z M 25.5,48.5 C 20.024,51.8761 18.024,56.8761 19.5,63.5C 18.0149,69.9805 20.0149,74.8138 25.5,78C 51.1667,78.6667 76.8333,78.6667 102.5,78C 105.381,76.7494 107.214,74.5827 108,71.5C 108.667,66.1667 108.667,60.8333 108,55.5C 107.214,52.4173 105.381,50.2506 102.5,49C 76.8355,48.5 51.1688,48.3334 25.5,48.5 Z"/></g>
<g><path style="opacity:0.896" fill="#33cbcb" d="M 36.5,53.5 C 38.0972,54.0905 39.4305,55.0905 40.5,56.5C 42.4393,54.3824 44.606,54.049 47,55.5C 46.9934,60.2131 46.3267,64.8798 45,69.5C 41.8353,74.7231 39.1686,74.3898 37,68.5C 35.1908,72.7663 32.5242,73.7663 29,71.5C 27.754,66.6826 26.5873,61.8493 25.5,57C 25.8621,55.1147 27.0287,54.2814 29,54.5C 31.1879,54.354 32.5212,55.354 33,57.5C 33.6897,55.6498 34.8564,54.3164 36.5,53.5 Z"/></g>
<g><path style="opacity:0.889" fill="#32cccc" d="M 63.5,53.5 C 65.0972,54.0905 66.4305,55.0905 67.5,56.5C 69.4393,54.3824 71.606,54.049 74,55.5C 73.9934,60.2131 73.3267,64.8798 72,69.5C 68.8353,74.7231 66.1686,74.3898 64,68.5C 60.6647,74.9385 57.6647,74.9385 55,68.5C 53.9297,64.1632 53.263,59.8299 53,55.5C 56.0859,53.78 58.4192,54.4466 60,57.5C 60.6897,55.6498 61.8564,54.3164 63.5,53.5 Z"/></g>
<g><path style="opacity:0.886" fill="#33cccc" d="M 90.5,53.5 C 92.0972,54.0905 93.4305,55.0905 94.5,56.5C 96.4393,54.3824 98.606,54.049 101,55.5C 100.993,60.2131 100.327,64.8798 99,69.5C 95.8353,74.7231 93.1686,74.3898 91,68.5C 87.6647,74.9385 84.6647,74.9385 82,68.5C 80.9297,64.1632 80.263,59.8299 80,55.5C 83.0859,53.78 85.4192,54.4466 87,57.5C 87.6897,55.6498 88.8564,54.3164 90.5,53.5 Z"/></g>
</svg>
